<svg xmlns="http://www.w3.org/2000/svg" viewBox="0 0 297 297" width="512" height="512"><g fill="#dc3545"><path d="M287.6 15.5H158V9.4a9.4 9.4 0 0 0-18.8 0v6H9.4A9.4 9.4 0 0 0 0 24.9v31C0 60.8 4.2 65 9.4 65h6v160.7c0 5.2 4.3 9.4 9.4 9.4h105L94.6 282a9.4 9.4 0 1 0 15 11.3l29.5-39.4v33.7a9.4 9.4 0 0 0 18.8 0V254l29.5 39.4a9.4 9.4 0 1 0 15-11.3l-35.2-46.8h105c5.1 0 9.3-4.2 9.3-9.4V65h6.1c5.2 0 9.4-4.2 9.4-9.4V24.8c0-5.1-4.2-9.3-9.4-9.3zM18.7 46.4V34.2h259.6v12.2H18.7zm244.1 170H34.2V65.1h228.6v151.3z"/><path d="M71.2 142.4h139.1a9.4 9.4 0 0 0 0-18.7H71.2a9.4 9.4 0 0 0 0 18.7zM71.2 111.5h31a9.4 9.4 0 1 0 0-18.7h-31a9.4 9.4 0 0 0 0 18.7zM71.2 173.3H164a9.4 9.4 0 0 0 0-18.7H71.2a9.4 9.4 0 0 0 0 18.7z"/></g></svg>